<svg width="1096" height="781" viewBox="0 0 1096 781" fill="none" xmlns="http://www.w3.org/2000/svg">
<rect width="1096" height="781" fill="#121212"/>
<g id="contact 1">
<g clip-path="url(#clip0)">
<g id="Group" opacity="0.1">
<path id="Vector" opacity="0.1" d="M612.28 341.39C616.98 341.39 620.79 336.407 620.79 330.26C620.79 324.113 616.98 319.13 612.28 319.13C607.58 319.13 603.77 324.113 603.77 330.26C603.77 336.407 607.58 341.39 612.28 341.39Z" fill="#3F3D56"/>
<path id="Vector_2" opacity="0.1" d="M619 282.63C620.183 280.561 620.794 278.214 620.77 275.83C620.77 269.68 616.96 264.69 612.27 264.69C607.58 264.69 603.76 269.69 603.76 275.83C603.734 278.215 604.349 280.563 605.54 282.63C604.373 284.708 603.76 287.052 603.76 289.435C603.76 291.818 604.373 294.162 605.54 296.24C604.373 298.318 603.76 300.662 603.76 303.045C603.76 305.428 604.373 307.772 605.54 309.85C604.349 311.917 603.734 314.265 603.76 316.65C603.76 322.8 607.57 327.79 612.27 327.79C616.97 327.79 620.77 322.79 620.77 316.65C620.794 314.266 620.183 311.919 619 309.85C620.158 307.769 620.765 305.426 620.765 303.045C620.765 300.663 620.158 298.321 619 296.24C620.158 294.159 620.765 291.816 620.765 289.435C620.765 287.053 620.158 284.711 619 282.63V282.63Z" fill="#3F3D56"/>
<path id="Vector_3" opacity="0.1" d="M612.28 273.35C616.98 273.35 620.79 268.367 620.79 262.22C620.79 256.073 616.98 251.09 612.28 251.09C607.58 251.09 603.77 256.073 603.77 262.22C603.77 268.367 607.58 273.35 612.28 273.35Z" fill="#3F3D56"/>
<path id="Vector_4" opacity="0.1" d="M612.28 259.74C616.98 259.74 620.79 254.757 620.79 248.61C620.79 242.463 616.98 237.48 612.28 237.48C607.58 237.48 603.77 242.463 603.77 248.61C603.77 254.757 607.58 259.74 612.28 259.74Z" fill="#3F3D56"/>
<path id="Vector_5" opacity="0.1" d="M580.44 155.48C579.272 154.005 578.213 152.448 577.27 150.82L599.62 147.15L575.45 147.33C573.131 142.284 571.866 136.817 571.732 131.265C571.598 125.713 572.598 120.192 574.67 115.04L607.1 131.87L577.19 109.87C579.987 105.018 583.754 100.795 588.257 97.4641C592.759 94.1332 597.899 91.7661 603.357 90.5105C608.815 89.2549 614.473 89.1378 619.978 90.1665C625.483 91.1951 630.717 93.3475 635.353 96.4893C639.989 99.631 643.928 103.695 646.924 108.427C649.919 113.159 651.907 118.457 652.764 123.992C653.62 129.526 653.327 135.178 651.901 140.594C650.476 146.01 647.95 151.074 644.48 155.47C646.29 157.774 647.849 160.265 649.13 162.9L620.13 177.97L651.06 167.59C653.233 174.011 653.77 180.872 652.622 187.552C651.475 194.233 648.68 200.522 644.49 205.85C649.224 211.858 652.171 219.076 652.993 226.68C653.816 234.284 652.482 241.967 649.144 248.848C645.805 255.729 640.597 261.532 634.114 265.591C627.632 269.651 620.138 271.804 612.49 271.804C604.842 271.804 597.348 269.651 590.866 265.591C584.383 261.532 579.175 255.729 575.836 248.848C572.498 241.967 571.164 234.284 571.987 226.68C572.809 219.076 575.756 211.858 580.49 205.85C574.84 198.669 571.769 189.797 571.769 180.66C571.769 171.523 574.84 162.651 580.49 155.47L580.44 155.48Z" fill="#6C63FF"/>
<path id="Vector_6" opacity="0.1" d="M653.2 180.67C653.214 189.809 650.141 198.685 644.48 205.86C649.214 211.868 652.16 219.086 652.983 226.69C653.806 234.294 652.472 241.977 649.134 248.858C645.795 255.739 640.587 261.542 634.104 265.601C627.622 269.661 620.128 271.814 612.48 271.814C604.832 271.814 597.338 269.661 590.856 265.601C584.373 261.542 579.165 255.739 575.826 248.858C572.488 241.977 571.154 234.294 571.976 226.69C572.799 219.086 575.746 211.868 580.48 205.86C575 198.93 653.2 176.1 653.2 180.67Z" fill="black"/>
</g>
<g id="Group_2" opacity="0.1">
<path id="Vector_7" opacity="0.1" d="M1005.96 332.917C1010.66 332.917 1014.47 327.934 1014.47 321.787C1014.47 315.64 1010.66 310.657 1005.96 310.657C1001.26 310.657 997.453 315.64 997.453 321.787C997.453 327.934 1001.26 332.917 1005.96 332.917Z" fill="#3F3D56"/>
<path id="Vector_8" opacity="0.1" d="M999.243 274.157C998.06 272.087 997.449 269.74 997.473 267.357C997.473 261.207 1001.28 256.217 1005.97 256.217C1010.66 256.217 1014.48 261.217 1014.48 267.357C1014.51 269.742 1013.89 272.09 1012.7 274.157C1013.87 276.235 1014.48 278.578 1014.48 280.962C1014.48 283.345 1013.87 285.689 1012.7 287.767C1013.87 289.845 1014.48 292.188 1014.48 294.572C1014.48 296.955 1013.87 299.299 1012.7 301.377C1013.89 303.443 1014.51 305.792 1014.48 308.177C1014.48 314.327 1010.67 319.317 1005.97 319.317C1001.27 319.317 997.473 314.317 997.473 308.177C997.449 305.793 998.06 303.446 999.243 301.377C998.086 299.296 997.478 296.953 997.478 294.572C997.478 292.19 998.086 289.848 999.243 287.767C998.086 285.686 997.478 283.343 997.478 280.962C997.478 278.58 998.086 276.238 999.243 274.157Z" fill="#3F3D56"/>
<path id="Vector_9" opacity="0.1" d="M1005.96 264.877C1010.66 264.877 1014.47 259.894 1014.47 253.747C1014.47 247.6 1010.66 242.617 1005.96 242.617C1001.26 242.617 997.453 247.6 997.453 253.747C997.453 259.894 1001.26 264.877 1005.96 264.877Z" fill="#3F3D56"/>
<path id="Vector_10" opacity="0.1" d="M1005.96 251.267C1010.66 251.267 1014.47 246.284 1014.47 240.137C1014.47 233.99 1010.66 229.007 1005.96 229.007C1001.26 229.007 997.453 233.99 997.453 240.137C997.453 246.284 1001.26 251.267 1005.96 251.267Z" fill="#3F3D56"/>
<path id="Vector_11" opacity="0.1" d="M1037.8 147.007C1038.97 145.532 1040.03 143.975 1040.97 142.347L1018.62 138.677L1042.79 138.857C1045.11 133.81 1046.38 128.344 1046.51 122.792C1046.65 117.24 1045.65 111.719 1043.57 106.567L1011.14 123.397L1041.05 101.397C1038.26 96.545 1034.49 92.3219 1029.99 88.991C1025.48 85.6601 1020.34 83.2929 1014.89 82.0373C1009.43 80.7817 1003.77 80.6646 998.265 81.6933C992.76 82.722 987.526 84.8744 982.89 88.0161C978.254 91.1579 974.315 95.2216 971.319 99.9535C968.324 104.685 966.336 109.984 965.479 115.519C964.623 121.053 964.916 126.705 966.342 132.121C967.767 137.537 970.293 142.601 973.763 146.997C971.953 149.301 970.395 151.792 969.113 154.427L998.113 169.497L967.243 159.127C965.071 165.548 964.534 172.409 965.681 179.089C966.828 185.77 969.623 192.059 973.813 197.387C969.08 203.394 966.133 210.613 965.31 218.217C964.487 225.821 965.821 233.503 969.16 240.385C972.498 247.266 977.707 253.068 984.189 257.128C990.671 261.188 998.165 263.341 1005.81 263.341C1013.46 263.341 1020.96 261.188 1027.44 257.128C1033.92 253.068 1039.13 247.266 1042.47 240.385C1045.81 233.503 1047.14 225.821 1046.32 218.217C1045.49 210.613 1042.55 203.394 1037.81 197.387C1043.46 190.206 1046.53 181.334 1046.53 172.197C1046.53 163.06 1043.46 154.188 1037.81 147.007H1037.8Z" fill="#6C63FF"/>
<path id="Vector_12" opacity="0.1" d="M965.043 172.197C965.029 181.336 968.102 190.212 973.763 197.387C969.029 203.394 966.083 210.613 965.26 218.217C964.437 225.821 965.771 233.503 969.11 240.385C972.448 247.266 977.657 253.068 984.139 257.128C990.621 261.188 998.115 263.341 1005.76 263.341C1013.41 263.341 1020.91 261.188 1027.39 257.128C1033.87 253.068 1039.08 247.266 1042.42 240.385C1045.76 233.503 1047.09 225.821 1046.27 218.217C1045.44 210.613 1042.5 203.394 1037.76 197.387C1043.24 190.457 965.043 167.627 965.043 172.197Z" fill="black"/>
</g>
<g id="Group_3" opacity="0.1">
<path id="Vector_13" opacity="0.1" d="M-6.71936 346.211C-0.434364 346.211 4.66064 339.54 4.66064 331.311C4.66064 323.082 -0.434364 316.411 -6.71936 316.411C-13.0044 316.411 -18.0994 323.082 -18.0994 331.311C-18.0994 339.54 -13.0044 346.211 -6.71936 346.211Z" fill="#3F3D56"/>
<path id="Vector_14" opacity="0.1" d="M2.28064 267.561C3.86822 264.789 4.68967 261.645 4.66064 258.451C4.66064 250.221 -0.439362 243.551 -6.71936 243.551C-12.9994 243.551 -18.0994 250.221 -18.0994 258.451C-18.1314 261.644 -17.3135 264.788 -15.7294 267.561C-17.2839 270.344 -18.1 273.478 -18.1 276.666C-18.1 279.854 -17.2839 282.988 -15.7294 285.771C-17.2839 288.554 -18.1 291.688 -18.1 294.876C-18.1 298.064 -17.2839 301.198 -15.7294 303.981C-17.3166 306.752 -18.1348 309.897 -18.0994 313.091C-18.0994 321.311 -13.0094 327.991 -6.71936 327.991C-0.429362 327.991 4.69064 321.331 4.69064 313.111C4.72256 309.917 3.90093 306.772 2.31064 304.001C3.87074 301.22 4.69008 298.085 4.69008 294.896C4.69008 291.707 3.87074 288.572 2.31064 285.791C3.87074 283.01 4.69008 279.875 4.69008 276.686C4.69008 273.497 3.87074 270.362 2.31064 267.581L2.28064 267.561Z" fill="#3F3D56"/>
<path id="Vector_15" opacity="0.1" d="M-6.71936 255.161C-0.434364 255.161 4.66064 248.49 4.66064 240.261C4.66064 232.032 -0.434364 225.361 -6.71936 225.361C-13.0044 225.361 -18.0994 232.032 -18.0994 240.261C-18.0994 248.49 -13.0044 255.161 -6.71936 255.161Z" fill="#3F3D56"/>
<path id="Vector_16" opacity="0.1" d="M-6.71936 236.951C-0.434364 236.951 4.66064 230.28 4.66064 222.051C4.66064 213.822 -0.434364 207.151 -6.71936 207.151C-13.0044 207.151 -18.0994 213.822 -18.0994 222.051C-18.0994 230.28 -13.0044 236.951 -6.71936 236.951Z" fill="#3F3D56"/>
<path id="Vector_17" opacity="0.1" d="M-49.3093 97.4211C-50.8656 95.4419 -52.2823 93.3568 -53.5493 91.1811L-23.6393 86.2711L-56.0093 86.5611C-59.1055 79.807 -60.7911 72.4922 -60.9631 65.0642C-61.135 57.6362 -59.7897 50.2513 -57.0093 43.3611L-13.6093 65.8711L-53.6093 36.4511C-49.8812 29.933 -44.8468 24.2554 -38.8218 19.774C-32.7967 15.2926 -25.9109 12.1041 -18.5959 10.4084C-11.281 8.71268 -3.69459 8.54627 3.68768 9.91963C11.07 11.293 18.089 14.1765 24.3047 18.3894C30.5205 22.6023 35.7989 28.0538 39.8093 34.4021C43.8197 40.7504 46.4754 47.8587 47.6101 55.2814C48.7448 62.7041 48.3339 70.2812 46.4033 77.5377C44.4727 84.7942 41.0639 91.5736 36.3907 97.4511C38.8152 100.531 40.9006 103.864 42.6107 107.391L3.77066 127.561L45.1707 113.671C48.0728 122.265 48.788 131.446 47.2516 140.385C45.7152 149.324 41.9755 157.74 36.3707 164.871C42.6969 172.913 46.6325 182.572 47.7276 192.746C48.8226 202.919 47.0327 213.195 42.5628 222.398C38.0928 231.602 31.123 239.362 22.4505 244.792C13.7779 250.221 3.75251 253.1 -6.47934 253.1C-16.7112 253.1 -26.7366 250.221 -35.4091 244.792C-44.0817 239.362 -51.0515 231.602 -55.5214 222.398C-59.9914 213.195 -61.7812 202.919 -60.6862 192.746C-59.5912 182.572 -55.6556 172.913 -49.3293 164.871C-56.8896 155.261 -61 143.389 -61 131.161C-61 118.934 -56.8896 107.061 -49.3293 97.4511L-49.3093 97.4211Z" fill="#6C63FF"/>
<path id="Vector_18" opacity="0.1" d="M48.0406 131.131C48.0603 143.362 43.9481 155.24 36.3706 164.841C42.6969 172.883 46.6325 182.542 47.7275 192.716C48.8225 202.889 47.0327 213.165 42.5627 222.368C38.0928 231.572 31.123 239.332 22.4504 244.762C13.7779 250.191 3.7525 253.07 -6.47936 253.07C-16.7112 253.07 -26.7366 250.191 -35.4092 244.762C-44.0817 239.332 -51.0515 231.572 -55.5215 222.368C-59.9914 213.165 -61.7813 202.889 -60.6862 192.716C-59.5912 182.542 -55.6556 172.883 -49.3294 164.841C-56.6394 155.561 48.0406 125.011 48.0406 131.131Z" fill="black"/>
</g>
<path id="Vector_19" opacity="0.1" d="M548 574.74C850.652 574.74 1096 570.773 1096 565.88C1096 560.987 850.652 557.02 548 557.02C245.348 557.02 0 560.987 0 565.88C0 570.773 245.348 574.74 548 574.74Z" fill="#6C63FF"/>
<path id="Vector_20" opacity="0.1" d="M548 350.16C850.652 350.16 1096 346.193 1096 341.3C1096 336.407 850.652 332.44 548 332.44C245.348 332.44 0 336.407 0 341.3C0 346.193 245.348 350.16 548 350.16Z" fill="#6C63FF"/>
<path id="Vector_21" opacity="0.1" d="M808.79 110.37C805.22 109.696 801.53 110.1 798.19 111.53C796.185 112.423 794.015 112.885 791.82 112.885C789.625 112.885 787.455 112.423 785.45 111.53C783.078 110.489 780.508 109.976 777.918 110.026C775.328 110.076 772.78 110.688 770.45 111.82C769.123 112.525 767.643 112.896 766.14 112.9C760.06 112.9 755.01 106.78 753.96 98.71C755.157 97.8181 756.174 96.7088 756.96 95.44C760.52 89.7 766.03 86.01 772.23 86.01C778.43 86.01 783.87 89.65 787.43 95.33C788.49 97.0461 789.977 98.4584 791.745 99.4293C793.513 100.4 795.503 100.897 797.52 100.87H797.68C802.57 100.82 806.76 104.7 808.79 110.37Z" fill="#6C63FF"/>
<path id="Vector_22" opacity="0.1" d="M827.3 85.0201L817.48 91.2401L823.48 80.4001C821.79 79.055 819.7 78.3125 817.54 78.2901H817.38C816.71 78.2992 816.041 78.249 815.38 78.1401L812 80.2501L813.43 77.6501C811.067 76.8322 809.025 75.2843 807.6 73.2301L801.6 77.0101L805.36 70.1701C801.88 65.9901 797.18 63.4301 792.02 63.4301C785.82 63.4301 780.31 67.1101 776.74 72.8501C775.688 74.5664 774.2 75.9737 772.428 76.9291C770.656 77.8846 768.662 78.3541 766.65 78.2901H766.32C759.48 78.2901 753.94 86.0401 753.94 95.6001C753.94 105.16 759.48 112.92 766.32 112.92C767.822 112.91 769.3 112.54 770.63 111.84C772.959 110.705 775.507 110.09 778.097 110.039C780.687 109.987 783.258 110.499 785.63 111.54C787.633 112.44 789.804 112.905 792 112.905C794.196 112.905 796.367 112.44 798.37 111.54C800.723 110.522 803.268 110.022 805.831 110.072C808.395 110.122 810.918 110.721 813.23 111.83C814.545 112.518 816.006 112.882 817.49 112.89C824.33 112.89 829.87 105.13 829.87 95.5701C829.911 91.8936 829.028 88.2657 827.3 85.0201V85.0201Z" fill="#6C63FF"/>
<path id="Vector_23" opacity="0.1" d="M391.26 104.96C388.758 104.487 386.172 104.769 383.83 105.77C382.428 106.396 380.91 106.72 379.375 106.72C377.84 106.72 376.322 106.396 374.92 105.77C373.261 105.041 371.463 104.683 369.652 104.719C367.84 104.755 366.058 105.186 364.43 105.98C363.503 106.463 362.475 106.72 361.43 106.73C357.18 106.73 353.64 102.45 352.9 96.8C353.748 96.1782 354.471 95.4012 355.03 94.5101C357.52 90.5101 361.38 87.91 365.72 87.91C370.06 87.91 373.87 90.46 376.36 94.43C377.104 95.6318 378.145 96.6207 379.384 97.3006C380.623 97.9805 382.017 98.3282 383.43 98.31H383.54C386.9 98.29 389.83 101.01 391.26 104.96Z" fill="#6C63FF"/>
<path id="Vector_24" opacity="0.1" d="M404.21 87.23L397.34 91.59L401.51 84C400.331 83.0563 398.87 82.5352 397.36 82.52H397.24C396.764 82.5285 396.289 82.4917 395.82 82.41L393.49 83.89L394.49 82.07C392.838 81.4955 391.411 80.414 390.41 78.98L386.24 81.62L388.88 76.84C387.771 75.4083 386.358 74.2412 384.743 73.4231C383.127 72.605 381.35 72.1565 379.54 72.11C375.2 72.11 371.34 74.69 368.85 78.71C368.112 79.9119 367.069 80.8974 365.828 81.5665C364.586 82.2355 363.19 82.5645 361.78 82.52H361.55C356.76 82.52 352.88 87.94 352.88 94.64C352.88 101.34 356.76 106.76 361.55 106.76C362.597 106.752 363.626 106.491 364.55 106C366.178 105.21 367.959 104.783 369.768 104.748C371.577 104.714 373.373 105.073 375.03 105.8C376.44 106.443 377.97 106.784 379.52 106.8C381.046 106.797 382.555 106.477 383.95 105.86C385.597 105.147 387.378 104.796 389.172 104.831C390.966 104.865 392.732 105.284 394.35 106.06C395.276 106.545 396.305 106.799 397.35 106.8C402.13 106.8 406.01 101.37 406.01 94.68C406.05 92.0843 405.431 89.5208 404.21 87.23V87.23Z" fill="#6C63FF"/>
<path id="Vector_25" opacity="0.1" d="M86.79 314.5C83.95 314.81 81.19 315.69 78.33 315.87C75.47 316.05 72.33 315.36 70.55 313.15C69.7129 311.862 68.9516 310.527 68.27 309.15C67.4926 307.936 66.4278 306.933 65.17 306.23C64.3736 307.79 63.9193 309.502 63.8375 311.252C63.7557 313.002 64.0483 314.749 64.6956 316.376C65.343 318.004 66.3302 319.475 67.5915 320.69C68.8527 321.906 70.3588 322.838 72.0091 323.425C73.6595 324.012 75.4161 324.24 77.1617 324.094C78.9072 323.948 80.6014 323.431 82.1311 322.577C83.6609 321.724 84.9908 320.554 86.0322 319.146C87.0736 317.737 87.8025 316.123 88.17 314.41C87.72 314.42 87.25 314.45 86.79 314.5Z" fill="black"/>
<path id="Vector_26" opacity="0.1" d="M90.3 350.75C88.1775 350.85 86.0651 350.4 84.1683 349.442C82.2716 348.484 80.6551 347.051 79.4762 345.283C78.2973 343.516 77.5961 341.473 77.4408 339.353C77.2855 337.234 77.6814 335.111 78.59 333.19C79.5659 333.849 80.4047 334.691 81.06 335.67C81.7955 337.072 82.6101 338.431 83.5 339.74C85.42 341.99 88.7 342.74 91.67 342.59C94.64 342.44 97.51 341.59 100.47 341.34C100.88 341.34 101.29 341.28 101.71 341.27C101.098 343.876 99.6523 346.211 97.5934 347.922C95.5344 349.632 92.974 350.625 90.3 350.75Z" fill="black"/>
<path id="Vector_27" opacity="0.1" d="M448.34 312.18C449.785 314.966 452.239 317.094 455.201 318.131C458.163 319.167 461.409 319.033 464.276 317.756C467.143 316.479 469.413 314.156 470.624 311.261C471.835 308.366 471.894 305.117 470.79 302.18C469.772 302.84 468.861 303.653 468.09 304.59C466.92 306.01 466.09 307.59 464.79 308.96C462.27 311.43 458.21 312.45 454.59 312.54C452.501 312.541 450.415 312.421 448.34 312.18V312.18Z" fill="black"/>
</g>
</g>
<path id="Vector_28" opacity="0.1" d="M279.59 614.37C282.089 613.898 284.672 614.18 287.01 615.18C288.413 615.807 289.933 616.13 291.47 616.13C293.007 616.13 294.527 615.807 295.93 615.18C297.589 614.453 299.386 614.094 301.197 614.128C303.008 614.163 304.79 614.59 306.42 615.38C307.344 615.872 308.373 616.133 309.42 616.14C313.67 616.14 317.21 611.85 317.94 606.2C317.092 605.58 316.373 604.803 315.82 603.91C313.32 599.91 309.46 597.32 305.13 597.32C300.8 597.32 296.98 599.86 294.48 603.84C293.737 605.04 292.697 606.028 291.46 606.708C290.223 607.388 288.831 607.737 287.42 607.72H287.31C283.94 607.74 281 610.45 279.59 614.37Z" fill="#6C63FF"/>
<path id="Vector_29" opacity="0.1" d="M429.773 628.11L436.653 632.47L432.472 624.89C433.654 623.943 435.118 623.419 436.632 623.4H436.743C437.221 623.407 437.699 623.373 438.173 623.3L440.502 624.77L439.502 622.96C441.151 622.384 442.575 621.303 443.572 619.87L447.743 622.51L445.143 617.72C446.252 616.29 447.665 615.124 449.281 614.308C450.896 613.491 452.673 613.045 454.483 613C458.812 613 462.683 615.58 465.173 619.6C465.91 620.8 466.951 621.785 468.19 622.454C469.43 623.123 470.824 623.453 472.232 623.41H472.472C477.252 623.41 481.132 628.84 481.132 635.53C481.132 642.22 477.252 647.65 472.472 647.65C471.427 647.645 470.397 647.388 469.472 646.9C467.844 646.106 466.062 645.675 464.251 645.639C462.439 645.603 460.641 645.961 458.983 646.69C457.577 647.339 456.05 647.68 454.502 647.69C452.973 647.689 451.461 647.369 450.063 646.75C448.417 646.037 446.638 645.687 444.846 645.721C443.053 645.756 441.289 646.175 439.673 646.95C438.747 647.435 437.718 647.689 436.673 647.69C431.883 647.69 428.002 642.27 428.002 635.57C427.956 632.974 428.565 630.408 429.773 628.11V628.11Z" fill="#6C63FF"/>
<path id="Vector_30" d="M178.992 574L146 652.811L149.08 656L179 642.336L208.92 656L212 652.811L178.992 574Z" fill="#6C63FF"/>
<g id="Group_4" opacity="0.1">
<path id="Vector_31" opacity="0.1" d="M938.58 780.378C944.865 780.378 949.96 773.707 949.96 765.478C949.96 757.249 944.865 750.578 938.58 750.578C932.295 750.578 927.2 757.249 927.2 765.478C927.2 773.707 932.295 780.378 938.58 780.378Z" fill="#3F3D56"/>
<path id="Vector_32" opacity="0.1" d="M929.57 701.728C927.982 698.957 927.161 695.812 927.19 692.618C927.19 684.388 932.29 677.718 938.58 677.718C944.87 677.718 949.96 684.388 949.96 692.618C949.989 695.812 949.168 698.957 947.58 701.728C949.14 704.509 949.96 707.645 949.96 710.833C949.96 714.022 949.14 717.157 947.58 719.938C949.14 722.719 949.96 725.855 949.96 729.043C949.96 732.232 949.14 735.367 947.58 738.148C949.17 740.919 949.992 744.064 949.96 747.258C949.96 755.478 944.86 762.158 938.58 762.158C932.3 762.158 927.19 755.478 927.19 747.258C927.158 744.064 927.98 740.919 929.57 738.148C928.01 735.367 927.191 732.232 927.191 729.043C927.191 725.855 928.01 722.719 929.57 719.938C928.01 717.157 927.191 714.022 927.191 710.833C927.191 707.645 928.01 704.509 929.57 701.728V701.728Z" fill="#3F3D56"/>
<path id="Vector_33" opacity="0.1" d="M938.58 689.328C944.865 689.328 949.96 682.657 949.96 674.428C949.96 666.199 944.865 659.528 938.58 659.528C932.295 659.528 927.2 666.199 927.2 674.428C927.2 682.657 932.295 689.328 938.58 689.328Z" fill="#3F3D56"/>
<path id="Vector_34" opacity="0.1" d="M938.58 671.118C944.865 671.118 949.96 664.447 949.96 656.218C949.96 647.989 944.865 641.318 938.58 641.318C932.295 641.318 927.2 647.989 927.2 656.218C927.2 664.447 932.295 671.118 938.58 671.118Z" fill="#3F3D56"/>
<path id="Vector_35" opacity="0.1" d="M981.18 531.588C982.74 529.612 984.157 527.526 985.42 525.348L955.52 520.438L987.86 520.678C990.956 513.924 992.642 506.609 992.814 499.181C992.986 491.753 991.64 484.368 988.86 477.478L945.47 499.988L985.47 470.568C981.751 464.031 976.72 458.333 970.693 453.834C964.666 449.334 957.774 446.13 950.449 444.423C943.124 442.716 935.525 442.543 928.13 443.914C920.735 445.285 913.704 448.171 907.478 452.391C901.252 456.611 895.966 462.073 891.953 468.434C887.94 474.795 885.286 481.918 884.158 489.354C883.031 496.79 883.453 504.379 885.4 511.644C887.347 518.909 890.775 525.692 895.47 531.568C893.045 534.648 890.96 537.981 889.25 541.508L928.08 561.728L886.69 547.838C883.781 556.43 883.061 565.612 884.596 574.552C886.131 583.493 889.872 591.909 895.48 599.038C889.154 607.08 885.218 616.74 884.123 626.913C883.028 637.086 884.818 647.362 889.288 656.566C893.758 665.769 900.728 673.53 909.4 678.959C918.073 684.388 928.098 687.267 938.33 687.267C948.562 687.267 958.587 684.388 967.26 678.959C975.932 673.53 982.902 665.769 987.372 656.566C991.842 647.362 993.632 637.086 992.537 626.913C991.442 616.74 987.506 607.08 981.18 599.038C988.74 589.428 992.851 577.556 992.851 565.328C992.851 553.101 988.74 541.228 981.18 531.618V531.588Z" fill="#6C63FF"/>
<path id="Vector_36" opacity="0.1" d="M883.81 565.298C883.79 577.529 887.903 589.408 895.48 599.008C889.154 607.05 885.218 616.71 884.123 626.883C883.028 637.056 884.818 647.332 889.288 656.536C893.758 665.739 900.728 673.5 909.4 678.929C918.073 684.358 928.098 687.237 938.33 687.237C948.562 687.237 958.587 684.358 967.26 678.929C975.932 673.5 982.902 665.739 987.372 656.536C991.842 647.332 993.632 637.056 992.537 626.883C991.442 616.71 987.506 607.05 981.18 599.008C988.49 589.728 883.81 559.178 883.81 565.298Z" fill="black"/>
</g>
<path id="Vector_37" d="M977.596 638.421C974.426 635.328 966.801 630.66 963.02 628.918C958.657 626.873 957.053 626.909 953.965 629.087C951.396 630.865 949.729 632.581 946.777 631.949C943.825 631.318 937.977 627.016 932.319 621.513C926.662 616.01 922.271 610.338 921.642 607.414C921.014 604.489 922.745 602.898 924.585 600.391C926.808 597.377 926.872 595.812 924.758 591.554C922.936 587.865 918.208 580.442 915.01 577.331C911.813 574.219 911.12 574.904 909.371 575.553C907.571 576.289 905.842 577.182 904.206 578.22C901.036 580.291 899.259 582.016 898.011 584.611C896.763 587.207 895.351 592.025 902.612 604.64C907.968 614.29 914.752 623.118 922.745 630.838V630.838C930.684 638.656 939.761 645.288 949.683 650.52C962.601 657.632 967.548 656.219 970.208 655.01C972.868 653.801 974.636 652.085 976.749 648.965C977.815 647.369 978.73 645.682 979.482 643.924C980.083 642.217 980.794 641.524 977.596 638.421Z" fill="#6C63FF"/>
<path id="Vector_38" d="M604.69 662.083L574.76 692.533C574.707 692.583 574.666 692.644 574.637 692.711C574.608 692.778 574.594 692.85 574.594 692.923C574.594 692.996 574.608 693.068 574.637 693.135C574.666 693.202 574.707 693.262 574.76 693.313L595.76 715.643C596.262 716.149 596.604 716.792 596.742 717.492C596.88 718.192 596.809 718.917 596.536 719.576C596.264 720.235 595.803 720.799 595.211 721.197C594.619 721.595 593.923 721.809 593.21 721.813C592.25 721.811 591.33 721.43 590.65 720.753L569.76 698.503C569.653 698.398 569.51 698.339 569.36 698.339C569.21 698.339 569.067 698.398 568.96 698.503L563.87 703.643C561.786 705.774 559.297 707.467 556.549 708.623C553.802 709.779 550.851 710.374 547.87 710.373C544.833 710.359 541.829 709.74 539.034 708.551C536.238 707.363 533.708 705.63 531.59 703.453L526.7 698.453C526.593 698.348 526.45 698.289 526.3 698.289C526.15 698.289 526.007 698.348 525.9 698.453L505.06 720.653C504.725 720.989 504.326 721.255 503.888 721.437C503.45 721.619 502.98 721.713 502.505 721.713C502.03 721.713 501.56 721.619 501.122 721.437C500.684 721.255 500.285 720.989 499.95 720.653C499.613 720.318 499.345 719.92 499.163 719.482C498.98 719.043 498.886 718.573 498.886 718.098C498.886 717.623 498.98 717.153 499.163 716.714C499.345 716.276 499.613 715.878 499.95 715.543L520.87 693.263C520.963 693.154 521.014 693.016 521.014 692.873C521.014 692.73 520.963 692.592 520.87 692.483L490.94 662.033C490.863 661.956 490.765 661.903 490.658 661.881C490.551 661.86 490.44 661.871 490.339 661.913C490.238 661.954 490.152 662.025 490.092 662.116C490.032 662.207 490 662.314 490 662.423V723.353C490.008 725.708 490.947 727.965 492.613 729.63C494.278 731.296 496.535 732.235 498.89 732.243H596.76C599.115 732.235 601.372 731.296 603.037 729.63C604.703 727.965 605.642 725.708 605.65 723.353V662.473C605.655 662.36 605.625 662.247 605.563 662.152C605.502 662.056 605.413 661.982 605.308 661.939C605.202 661.897 605.087 661.888 604.976 661.913C604.865 661.939 604.766 661.998 604.69 662.083V662.083Z" fill="#6C63FF"/>
<path id="Vector_39" d="M547.84 710.87C549.869 710.89 551.881 710.502 553.757 709.729C555.633 708.956 557.334 707.814 558.76 706.37L602.35 662C600.803 660.718 598.859 660.012 596.85 660H498.91C496.9 660.007 494.955 660.714 493.41 662L537.01 706.37C538.423 707.805 540.11 708.943 541.97 709.716C543.83 710.489 545.826 710.881 547.84 710.87V710.87Z" fill="#6C63FF"/>
<defs>
<clipPath id="clip0">
<rect width="1096" height="574.74" fill="white"/>
</clipPath>
</defs>
</svg>
