<svg width="799" height="690" viewBox="0 0 799 690" fill="none" xmlns="http://www.w3.org/2000/svg">
<rect width="799" height="690" fill="#E5E5E5"/>
<g id="undraw_dev_productivity_umsq 1">
<g clip-path="url(#clip0)">
<path id="Vector" d="M668 655.987V662.839C668.003 664.72 667.705 666.585 667.12 668.337C666.86 669.118 666.546 669.873 666.181 670.595C665.028 672.853 663.392 674.723 661.433 676.021C659.474 677.319 657.26 678.001 655.007 678H222.993C220.74 678.001 218.526 677.319 216.567 676.021C214.608 674.723 212.972 672.853 211.819 670.595C211.454 669.873 211.14 669.118 210.88 668.337C210.295 666.585 209.997 664.72 210 662.839V655.987C210 653.996 210.335 652.025 210.988 650.185C211.641 648.345 212.598 646.674 213.805 645.266C215.011 643.858 216.444 642.741 218.02 641.98C219.597 641.218 221.287 640.826 222.993 640.827H247.895V637.632C247.895 637.549 247.909 637.467 247.936 637.39C247.963 637.313 248.003 637.244 248.053 637.185C248.104 637.126 248.164 637.08 248.229 637.048C248.295 637.016 248.366 637 248.437 637H261.43C261.501 637 261.571 637.016 261.637 637.048C261.703 637.08 261.763 637.126 261.813 637.185C261.863 637.244 261.903 637.313 261.93 637.39C261.958 637.467 261.971 637.549 261.971 637.632V640.827H270.088V637.632C270.088 637.549 270.102 637.467 270.129 637.39C270.156 637.313 270.196 637.244 270.247 637.185C270.297 637.126 270.357 637.08 270.423 637.048C270.488 637.016 270.559 637 270.63 637H283.623C283.694 637 283.765 637.016 283.83 637.048C283.896 637.08 283.956 637.126 284.006 637.185C284.057 637.244 284.096 637.313 284.124 637.39C284.151 637.467 284.165 637.549 284.165 637.632V640.827H292.291V637.632C292.291 637.549 292.305 637.467 292.332 637.39C292.359 637.313 292.399 637.244 292.45 637.185C292.5 637.126 292.56 637.08 292.625 637.048C292.691 637.016 292.762 637 292.833 637H305.826C305.897 637 305.967 637.016 306.033 637.048C306.099 637.08 306.159 637.126 306.209 637.185C306.259 637.244 306.299 637.313 306.327 637.39C306.354 637.467 306.368 637.549 306.368 637.632V640.827H314.484V637.632C314.484 637.549 314.498 637.467 314.525 637.39C314.553 637.313 314.593 637.244 314.643 637.185C314.693 637.126 314.753 637.08 314.819 637.048C314.885 637.016 314.955 637 315.026 637H328.019C328.09 637 328.161 637.016 328.227 637.048C328.292 637.08 328.352 637.126 328.402 637.185C328.453 637.244 328.493 637.313 328.52 637.39C328.547 637.467 328.561 637.549 328.561 637.632V640.827H336.678V637.632C336.678 637.549 336.692 637.467 336.719 637.39C336.746 637.313 336.786 637.244 336.836 637.185C336.887 637.126 336.946 637.08 337.012 637.048C337.078 637.016 337.148 637 337.22 637H350.212C350.284 637 350.354 637.016 350.42 637.048C350.486 637.08 350.545 637.126 350.596 637.185C350.646 637.244 350.686 637.313 350.713 637.39C350.74 637.467 350.754 637.549 350.754 637.632V640.827H358.881V637.632C358.881 637.549 358.895 637.467 358.922 637.39C358.949 637.313 358.989 637.244 359.039 637.185C359.089 637.126 359.149 637.08 359.215 637.048C359.281 637.016 359.351 637 359.422 637H372.415C372.486 637 372.557 637.016 372.623 637.048C372.689 637.08 372.748 637.126 372.799 637.185C372.849 637.244 372.889 637.313 372.916 637.39C372.943 637.467 372.957 637.549 372.957 637.632V640.827H381.074V637.632C381.074 637.549 381.088 637.467 381.115 637.39C381.142 637.313 381.182 637.244 381.232 637.185C381.283 637.126 381.342 637.08 381.408 637.048C381.474 637.016 381.545 637 381.616 637H483.391C483.463 637 483.533 637.016 483.599 637.048C483.665 637.08 483.724 637.126 483.775 637.185C483.825 637.244 483.865 637.313 483.892 637.39C483.919 637.467 483.933 637.549 483.933 637.632V640.827H492.06V637.632C492.06 637.549 492.073 637.467 492.101 637.39C492.128 637.313 492.168 637.244 492.218 637.185C492.268 637.126 492.328 637.08 492.394 637.048C492.46 637.016 492.53 637 492.601 637H505.594C505.738 637.002 505.875 637.069 505.976 637.187C506.077 637.305 506.135 637.465 506.136 637.632V640.827H514.253V637.632C514.253 637.549 514.267 637.467 514.294 637.39C514.321 637.313 514.361 637.244 514.411 637.185C514.462 637.126 514.522 637.08 514.587 637.048C514.653 637.016 514.724 637 514.795 637H527.788C527.859 637 527.929 637.016 527.995 637.048C528.061 637.08 528.121 637.126 528.171 637.185C528.221 637.244 528.261 637.313 528.288 637.39C528.316 637.467 528.33 637.549 528.329 637.632V640.827H536.446V637.632C536.446 637.549 536.46 637.467 536.487 637.39C536.515 637.313 536.554 637.244 536.605 637.185C536.655 637.126 536.715 637.08 536.781 637.048C536.846 637.016 536.917 637 536.988 637H549.981C550.052 637 550.123 637.016 550.188 637.048C550.254 637.08 550.314 637.126 550.364 637.185C550.415 637.244 550.455 637.313 550.482 637.39C550.509 637.467 550.523 637.549 550.523 637.632V640.827H558.649V637.632C558.649 637.549 558.663 637.467 558.69 637.39C558.717 637.313 558.757 637.244 558.808 637.185C558.858 637.126 558.918 637.08 558.984 637.048C559.049 637.016 559.12 637 559.191 637H572.184C572.326 637.002 572.462 637.07 572.562 637.188C572.661 637.307 572.717 637.466 572.716 637.632V640.827H580.843V637.632C580.842 637.549 580.856 637.467 580.884 637.39C580.911 637.313 580.951 637.244 581.001 637.185C581.051 637.126 581.111 637.08 581.177 637.048C581.243 637.016 581.313 637 581.384 637H594.377C594.448 637 594.519 637.016 594.585 637.048C594.65 637.08 594.71 637.126 594.761 637.185C594.811 637.244 594.851 637.313 594.878 637.39C594.905 637.467 594.919 637.549 594.919 637.632V640.827H603.036V637.632C603.036 637.549 603.05 637.467 603.077 637.39C603.104 637.313 603.144 637.244 603.194 637.185C603.245 637.126 603.304 637.08 603.37 637.048C603.436 637.016 603.506 637 603.578 637H616.57C616.642 637 616.712 637.016 616.778 637.048C616.844 637.08 616.903 637.126 616.954 637.185C617.004 637.244 617.044 637.313 617.071 637.39C617.098 637.467 617.112 637.549 617.112 637.632V640.827H655.007C656.714 640.826 658.403 641.218 659.98 641.98C661.556 642.741 662.989 643.858 664.195 645.266C665.402 646.674 666.359 648.345 667.012 650.185C667.665 652.025 668 653.996 668 655.987V655.987Z" fill="#3F3D56"/>
<path id="Vector_2" d="M796 677H88V680H796V677Z" fill="#3F3D56"/>
<path id="Vector_3" d="M132 658H104V689H132V658Z" fill="#D0CDE1"/>
<path id="Vector_4" d="M468 609.253C468 609.253 462.526 611.313 453.624 614.231C433.947 620.712 397.536 631.463 366.679 633.611C340.113 635.481 317.664 630.983 313.558 611.944C311.798 603.758 314.294 597.024 319.734 591.49C335.973 574.953 378.387 569.028 412.026 566.994C421.526 566.425 430.312 566.16 437.627 566.059C450.048 565.882 458.19 566.16 458.19 566.16L458.385 566.994L468 609.253Z" fill="#A0616A"/>
<path id="Vector_5" d="M426.224 672.255C407.815 693.923 331.816 648.53 305.234 631.602C299.445 627.918 296 625.585 296 625.585L320.318 594.758L328.02 585C328.02 585 334.911 588.475 345.097 594.13C345.468 594.34 345.838 594.549 346.219 594.758C355.002 599.661 366.03 606.069 377.157 613.218C392.511 623.091 408.036 634.354 418.041 644.959C427.827 655.327 432.324 665.067 426.224 672.255Z" fill="#A0616A"/>
<g id="me">
<path id="Vector_6" d="M516 307.064L503.669 360.17L477.597 472.524L476.816 478.677L467.818 549.911L461.833 597.232L457.82 629.02C433.419 640.881 415.733 649.069 415.733 649.069C415.733 649.069 414.212 641.856 411.76 632.626C394.635 637.483 362.948 645.538 336.095 647.148C345.873 657.456 350.367 667.14 344.272 674.287C325.876 695.832 249.93 650.697 223.367 633.866C222.749 637.896 222.515 641.97 222.667 646.04L202.339 631.254L204.351 597.232L207.744 539.668L212.008 467.479C210.663 464.388 209.536 461.216 208.635 457.984C202.409 437.045 194.853 395.233 189.058 360.17C184.394 331.951 180.891 308.106 180.15 303.032C180.05 302.369 180 302.028 180 302.028L292.527 255C300.524 272.541 337.866 277.814 337.866 277.814C368.803 275.797 393.054 260.367 393.054 260.367L516 307.064Z" fill="#D0CDE1"/>
<g id="head">
<path id="Vector_7" d="M344 219C385.421 219 419 187.884 419 149.5C419 111.116 385.421 80 344 80C302.579 80 269 111.116 269 149.5C269 187.884 302.579 219 344 219Z" fill="#A0616A"/>
<path id="Vector_8" d="M287.712 183C287.712 183 301.79 283.43 280.132 294.702C258.473 305.975 409 307 409 307C409 307 375.429 219.893 390.59 193.248L287.712 183Z" fill="#A0616A"/>
<path id="Vector_9" d="M282.506 83.3207L268.729 78.1009C268.729 78.1009 297.536 48.0869 337.616 50.6969L326.343 38.9522C326.343 38.9522 353.898 28.5126 378.948 55.9166C392.116 70.3223 407.352 87.2554 416.85 106.33H431.605L425.447 119.162L447 131.994L424.878 129.69C426.196 136.717 426.398 143.89 425.478 150.974C424.529 158.06 420.708 164.519 414.822 168.989V168.989C414.822 168.989 397.735 135.519 397.735 130.299V143.349C397.735 143.349 383.958 131.604 383.958 123.774L376.443 132.909L372.686 118.554L326.343 132.909L333.858 121.165L305.051 125.079L316.324 110.725C316.324 110.725 283.759 127.689 282.506 142.044C281.254 156.398 271.722 170 271.722 170C271.722 170 246.184 102.895 282.506 83.3207Z" fill="#2F2E41"/>
</g>
<path id="Vector_10" d="M596.991 550.426C589.482 558.09 570.876 569.633 548.321 582.129C539.93 586.773 530.998 591.558 521.886 596.315C500.142 607.67 477.376 618.92 458.589 628.009C434.149 639.836 416.435 648 416.435 648C416.435 648 414.912 640.808 412.456 631.605C409.167 619.288 404.215 603.366 399.052 596.315C398.872 596.07 398.692 595.843 398.511 595.617C397.007 593.758 395.494 592.672 394 592.672L468.604 549.133L500.844 530.313L477.616 478.109L448.484 412.625L466.068 359.949L483.741 307H516.863C516.863 307 527.83 329.539 541.855 360.969C543.95 365.669 546.115 370.568 548.321 375.627C577.172 441.695 613.141 533.956 596.991 550.426Z" fill="#D0CDE1"/>
<path id="Vector_11" d="M254 605.425C251.278 605.415 248.56 605.624 245.876 606.051C222.818 609.801 216.018 629.557 214.083 642.791C213.463 646.833 213.228 650.919 213.381 655L193.011 640.171L185.589 634.769C167.726 628.874 151.81 618.402 138.009 606.051C126.037 595.147 115.298 583.091 105.965 570.08C96.6695 557.256 88.3828 543.802 81.1721 529.827C79.1602 525.927 78.0787 521.657 78.0041 517.317C77.9296 512.978 78.8639 508.676 80.7409 504.717L105.965 451.505L142.833 373.734C143.104 371.882 143.402 370.072 143.726 368.303C151.037 328.62 170.625 311 170.625 311H185.589L195.598 368.303L208.035 439.496L199.319 466.4L179.18 528.536L198.427 548.321L254 605.425Z" fill="#D0CDE1"/>
</g>
<path id="Vector_12" d="M531.704 429.257H364.706V426H288.983V429.257H121.296C118.3 429.257 115.427 430.383 113.309 432.387C111.19 434.392 110 437.11 110 439.945V656.312C110 659.146 111.19 661.865 113.309 663.869C115.427 665.874 118.3 667 121.296 667H531.704C534.7 667 537.573 665.874 539.691 663.869C541.81 661.865 543 659.146 543 656.312V439.945C543 438.541 542.708 437.152 542.14 435.855C541.572 434.558 540.74 433.38 539.691 432.387C538.643 431.395 537.397 430.607 536.027 430.07C534.656 429.533 533.187 429.257 531.704 429.257V429.257Z" fill="#3F3D56"/>
<path id="Vector_13" d="M374 523C387.807 523 399 512.031 399 498.5C399 484.969 387.807 474 374 474C360.193 474 349 484.969 349 498.5C349 512.031 360.193 523 374 523Z" stroke="#D0CDE1" stroke-width="2" stroke-miterlimit="10"/>
<path id="Vector_14" d="M365 531C378.807 531 390 520.255 390 507C390 493.745 378.807 483 365 483C351.193 483 340 493.745 340 507C340 520.255 351.193 531 365 531Z" fill="#D0CDE1"/>
<g id="watch">
<path id="Vector_15" d="M82.0699 252.871C126.601 252.871 162.701 219.148 162.701 177.548C162.701 135.947 126.601 102.224 82.0699 102.224C37.5383 102.224 1.43832 135.947 1.43832 177.548C1.43832 219.148 37.5383 252.871 82.0699 252.871Z" fill="#6C63FF"/>
<path id="Vector_16" d="M109.522 87.5898C102.236 86.7245 94.8625 86.7245 87.577 87.5898C71.346 89.5798 56.0671 95.876 43.5531 105.731C31.0391 115.587 21.8155 128.587 16.9765 143.191C14.7758 149.846 13.5295 156.744 13.2703 163.705C13.2338 164.673 13.2094 165.652 13.2094 166.631C13.232 187.76 22.2304 208.017 38.2298 222.957C54.2293 237.898 75.9227 246.3 98.5493 246.321C100.366 246.321 102.182 246.264 103.974 246.162C108.181 245.915 112.363 245.375 116.483 244.545C136.159 240.594 153.708 230.277 166.028 215.416C178.349 200.555 184.649 182.107 183.816 163.329C182.983 144.551 175.071 126.652 161.477 112.794C147.882 98.9349 129.481 90.0081 109.522 87.5898H109.522ZM125.261 239.923H125.248C118.376 242.113 111.222 243.442 103.974 243.874C102.182 243.988 100.366 244.044 98.5492 244.044C76.5706 244.019 55.4999 235.855 39.9586 221.343C24.4173 206.831 15.6744 187.155 15.6476 166.631C15.6476 165.652 15.672 164.673 15.7085 163.705C16.5466 143.704 25.6377 124.781 41.0787 110.897C56.5197 97.0126 77.1135 89.2443 98.5492 89.2177C118.19 89.2187 137.192 95.7308 152.171 107.594C167.149 119.457 177.131 135.9 180.338 153.994C183.545 172.088 179.769 190.658 169.682 206.395C159.596 222.132 143.853 234.013 125.261 239.923H125.261Z" fill="#3F3D56"/>
<path id="Vector_17" d="M100.315 93.4907H96.7837V110.957H100.315V93.4907Z" fill="#3F3D56"/>
<path id="Vector_18" d="M44.8091 114.722L43.1024 116.331L55.0497 127.597L56.7565 125.987L44.8091 114.722Z" fill="#3F3D56"/>
<path id="Vector_19" d="M43.1024 217.718L44.8092 219.328L56.7565 208.062L55.0497 206.453L43.1024 217.718Z" fill="#3F3D56"/>
<path id="Vector_20" d="M140.388 125.987L142.095 127.597L154.042 116.331L152.335 114.722L140.388 125.987Z" fill="#3F3D56"/>
<path id="Vector_21" d="M159.17 165.539V167.723H175.65V165.539H159.17Z" fill="#3F3D56"/>
<path id="Vector_22" d="M142.095 206.453L140.388 208.062L152.335 219.328L154.042 217.718L142.095 206.453Z" fill="#3F3D56"/>
<path id="Vector_23" d="M100.315 223.397H96.7837V240.863H100.315V223.397Z" fill="#3F3D56"/>
<path id="Vector_24" d="M102.434 162.374C101.313 161.594 99.9505 161.173 98.5499 161.173C97.1492 161.173 95.7863 161.594 94.6658 162.374C93.8987 162.914 93.267 163.602 92.8144 164.391C92.2408 165.406 91.9927 166.553 92.0994 167.695C92.2061 168.837 92.6631 169.927 93.4164 170.836C94.1697 171.745 95.1878 172.435 96.3504 172.824C97.513 173.213 98.7715 173.286 99.9771 173.033C101.183 172.78 102.285 172.213 103.154 171.397C104.023 170.582 104.622 169.553 104.88 168.432C105.139 167.311 105.046 166.145 104.612 165.071C104.179 163.997 103.423 163.061 102.434 162.374H102.434ZM98.5499 170.779C97.5207 170.776 96.5345 170.395 95.8067 169.721C95.079 169.046 94.6688 168.131 94.6658 167.177C94.6708 166.448 94.9097 165.737 95.352 165.135C95.7314 164.626 96.246 164.216 96.8463 163.944C97.4466 163.673 98.1122 163.551 98.7786 163.588C99.4451 163.625 100.09 163.821 100.651 164.157C101.212 164.493 101.669 164.958 101.98 165.506C102.291 166.054 102.443 166.667 102.424 167.286C102.404 167.905 102.212 168.509 101.868 169.039C101.523 169.569 101.036 170.008 100.455 170.313C99.8737 170.617 99.2175 170.778 98.5499 170.779V170.779Z" fill="#3F3D56"/>
<path id="Vector_25" d="M108.555 67.2912H88.5439V89.1241H108.555V67.2912Z" fill="#3F3D56"/>
<path id="Vector_26" d="M98.5493 71.6578C114.477 71.6578 127.388 67.259 127.388 61.8329C127.388 56.4068 114.477 52.0081 98.5493 52.0081C82.622 52.0081 69.7103 56.4068 69.7103 61.8329C69.7103 67.259 82.622 71.6578 98.5493 71.6578Z" fill="#3F3D56"/>
<path id="watch_hand" d="M102.669 124.057H94.4295V162.264H102.669V124.057Z" fill="#3F3D56"/>
<path id="Vector_27" d="M213.317 243.046H-13.864V244.138H213.317V243.046Z" fill="#3F3D56"/>
</g>
<g id="gopal_full">
<path id="Vector_28" d="M745.956 557.368L761.083 536.33L745.987 559.631L746.018 561.998C744.914 562.006 743.82 561.989 742.737 561.947L743.488 531.517L743.467 531.283L743.495 531.237L743.567 528.362L727 505.869L743.547 526.21L743.606 526.818L744.172 503.827L729.863 480.508L744.213 499.789L744.063 452.159L744.064 452L744.069 452.156L745.018 489.695L758.059 474.446L745.061 492.929L745.346 513.493L757.346 493.423L745.39 516.516L745.548 527.951L763 499.994L745.601 531.94L745.956 557.368Z" fill="#3F3D56"/>
<g id="gopal">
<path id="Vector_29" d="M673.071 671.449C737.728 671.449 790.143 664.493 790.143 655.914C790.143 647.334 737.728 640.379 673.071 640.379C608.415 640.379 556 647.334 556 655.914C556 664.493 608.415 671.449 673.071 671.449Z" fill="#3F3D56"/>
<path id="Vector_30" d="M585.889 583.224C585.889 583.224 612.797 575.956 614.452 599.375C616.108 622.794 592.306 629.456 610.934 634.099" stroke="#2F2E41" stroke-width="2" stroke-miterlimit="10"/>
<path id="Vector_31" d="M677.203 636.77C707.25 636.77 731.607 613.012 731.607 583.705C731.607 554.398 707.25 530.64 677.203 530.64C647.157 530.64 622.8 554.398 622.8 583.705C622.8 613.012 647.157 636.77 677.203 636.77Z" fill="#2F2E41"/>
<path id="Vector_32" d="M668.939 625.351H652.412V654.235H668.939V625.351Z" fill="#2F2E41"/>
<path id="Vector_33" d="M701.995 625.351H685.467V654.235H701.995V625.351Z" fill="#2F2E41"/>
<path id="Vector_34" d="M666.185 659.608C673.791 659.608 679.958 657.353 679.958 654.57C679.958 651.788 673.791 649.533 666.185 649.533C658.578 649.533 652.412 651.788 652.412 654.57C652.412 657.353 658.578 659.608 666.185 659.608Z" fill="#2F2E41"/>
<path id="Vector_35" d="M699.24 658.937C706.847 658.937 713.013 656.681 713.013 653.899C713.013 651.116 706.847 648.861 699.24 648.861C691.634 648.861 685.467 651.116 685.467 653.899C685.467 656.681 691.634 658.937 699.24 658.937Z" fill="#2F2E41"/>
<path id="Vector_36" d="M678.581 588.407C688.85 588.407 697.174 580.287 697.174 570.271C697.174 560.255 688.85 552.135 678.581 552.135C668.312 552.135 659.987 560.255 659.987 570.271C659.987 580.287 668.312 588.407 678.581 588.407Z" fill="white"/>
<path id="Vector_37" d="M678.581 576.316C682.004 576.316 684.778 573.61 684.778 570.271C684.778 566.932 682.004 564.226 678.581 564.226C675.158 564.226 672.383 566.932 672.383 570.271C672.383 573.61 675.158 576.316 678.581 576.316Z" fill="#3F3D56"/>
<path id="Vector_38" d="M624.43 534.356C620.037 515.167 634.079 495.777 655.794 491.048C677.509 486.319 698.673 498.041 703.066 517.23C707.459 536.419 693.068 543.496 671.353 548.225C649.638 552.955 628.823 553.545 624.43 534.356Z" fill="#6C63FF"/>
<path id="Vector_39" d="M728.229 573.122C742.04 567.356 751.732 559.253 749.876 555.024C748.02 550.795 735.32 552.041 721.509 557.807C707.697 563.572 698.005 571.675 699.861 575.904C701.717 580.133 714.417 578.887 728.229 573.122Z" fill="#2F2E41"/>
<path id="Vector_40" d="M626.308 608.722C640.119 602.956 649.811 594.854 647.955 590.625C646.1 586.396 633.399 587.641 619.588 593.407C605.776 599.173 596.084 607.275 597.94 611.505C599.796 615.734 612.496 614.488 626.308 608.722Z" fill="#2F2E41"/>
<path id="Vector_41" d="M708.881 599.155C708.881 604.348 695.171 614.604 679.958 614.604C664.745 614.604 650.346 605.02 650.346 599.826C650.346 594.633 664.745 595.796 679.958 595.796C695.171 595.796 708.881 593.961 708.881 599.155Z" fill="white"/>
</g>
</g>
</g>
</g>
<defs>
<clipPath id="clip0">
<rect width="798.627" height="689.223" fill="white"/>
</clipPath>
</defs>
</svg>
